<mxfile host="app.diagrams.net" agent="Mozilla/5.0 (Macintosh; Intel Mac OS X 10_15_7) AppleWebKit/537.36 (KHTML, like Gecko) Chrome/127.0.0.0 Safari/537.36" version="24.7.7">
  <diagram name="Page-1" id="BCWlcSMO-MocbUi-F9Bm">
    <mxGraphModel dx="1153" dy="463" grid="1" gridSize="10" guides="1" tooltips="1" connect="1" arrows="1" fold="1" page="1" pageScale="1" pageWidth="850" pageHeight="1100" math="0" shadow="0">
      <root>
        <mxCell id="0" />
        <mxCell id="1" parent="0" />
        <mxCell id="tqDQIGiHZF4fIQzJ_Sd8-1" value="&lt;div&gt;MVC Application&lt;/div&gt;&lt;div&gt;&lt;br&gt;&lt;/div&gt;&lt;div&gt;Photographer(name, contact,..) -&amp;gt; get, put post, delete&lt;/div&gt;&lt;div&gt;Event (id,&amp;nbsp; cost, ..)-&amp;gt;&amp;nbsp;&lt;span style=&quot;background-color: initial;&quot;&gt;get, put post, delete&lt;/span&gt;&lt;/div&gt;&lt;div&gt;&lt;span style=&quot;background-color: initial;&quot;&gt;&lt;br&gt;&lt;/span&gt;&lt;/div&gt;&lt;div&gt;&lt;span style=&quot;background-color: initial;&quot;&gt;100 requests/min&lt;/span&gt;&lt;/div&gt;&lt;div&gt;&lt;span style=&quot;background-color: initial;&quot;&gt;latency : minimal&lt;/span&gt;&lt;/div&gt;&lt;div&gt;&lt;span style=&quot;background-color: initial;&quot;&gt;&lt;br&gt;&lt;/span&gt;&lt;/div&gt;&lt;div&gt;&lt;span style=&quot;background-color: initial;&quot;&gt;Available, eventual consistency,&amp;nbsp;&lt;/span&gt;&lt;/div&gt;&lt;div&gt;Authentication is taken care of.&lt;/div&gt;&lt;div&gt;&lt;br&gt;&lt;/div&gt;&lt;div&gt;write/read&amp;nbsp;&lt;/div&gt;&lt;div&gt;&lt;br&gt;&lt;/div&gt;&lt;div&gt;&lt;span style=&quot;background-color: initial;&quot;&gt;&amp;nbsp;&lt;/span&gt;&lt;br&gt;&lt;/div&gt;&lt;div&gt;&lt;br&gt;&lt;/div&gt;" style="text;html=1;align=center;verticalAlign=middle;resizable=0;points=[];autosize=1;strokeColor=none;fillColor=none;" vertex="1" parent="1">
          <mxGeometry x="90" y="198" width="310" height="230" as="geometry" />
        </mxCell>
        <mxCell id="tqDQIGiHZF4fIQzJ_Sd8-10" value="" style="edgeStyle=orthogonalEdgeStyle;rounded=0;orthogonalLoop=1;jettySize=auto;html=1;" edge="1" parent="1" source="tqDQIGiHZF4fIQzJ_Sd8-14" target="tqDQIGiHZF4fIQzJ_Sd8-4">
          <mxGeometry relative="1" as="geometry" />
        </mxCell>
        <mxCell id="tqDQIGiHZF4fIQzJ_Sd8-2" value="WebServer" style="rounded=0;whiteSpace=wrap;html=1;" vertex="1" parent="1">
          <mxGeometry x="400" y="460" width="120" height="60" as="geometry" />
        </mxCell>
        <mxCell id="tqDQIGiHZF4fIQzJ_Sd8-4" value="Database" style="shape=cylinder3;whiteSpace=wrap;html=1;boundedLbl=1;backgroundOutline=1;size=15;" vertex="1" parent="1">
          <mxGeometry x="680" y="420" width="90" height="100" as="geometry" />
        </mxCell>
        <mxCell id="tqDQIGiHZF4fIQzJ_Sd8-9" value="" style="edgeStyle=orthogonalEdgeStyle;rounded=0;orthogonalLoop=1;jettySize=auto;html=1;" edge="1" parent="1" source="tqDQIGiHZF4fIQzJ_Sd8-5" target="tqDQIGiHZF4fIQzJ_Sd8-2">
          <mxGeometry relative="1" as="geometry" />
        </mxCell>
        <mxCell id="tqDQIGiHZF4fIQzJ_Sd8-5" value="LB" style="triangle;whiteSpace=wrap;html=1;" vertex="1" parent="1">
          <mxGeometry x="260" y="450" width="60" height="80" as="geometry" />
        </mxCell>
        <mxCell id="tqDQIGiHZF4fIQzJ_Sd8-7" value="Client" style="rounded=1;whiteSpace=wrap;html=1;" vertex="1" parent="1">
          <mxGeometry x="60" y="460" width="120" height="60" as="geometry" />
        </mxCell>
        <mxCell id="tqDQIGiHZF4fIQzJ_Sd8-8" value="" style="endArrow=classic;html=1;rounded=0;exitX=1;exitY=0.5;exitDx=0;exitDy=0;" edge="1" parent="1" source="tqDQIGiHZF4fIQzJ_Sd8-7" target="tqDQIGiHZF4fIQzJ_Sd8-5">
          <mxGeometry width="50" height="50" relative="1" as="geometry">
            <mxPoint x="480" y="460" as="sourcePoint" />
            <mxPoint x="530" y="410" as="targetPoint" />
          </mxGeometry>
        </mxCell>
        <mxCell id="tqDQIGiHZF4fIQzJ_Sd8-11" value="WebServer" style="rounded=0;whiteSpace=wrap;html=1;" vertex="1" parent="1">
          <mxGeometry x="410" y="470" width="120" height="60" as="geometry" />
        </mxCell>
        <mxCell id="tqDQIGiHZF4fIQzJ_Sd8-12" value="Database" style="shape=cylinder3;whiteSpace=wrap;html=1;boundedLbl=1;backgroundOutline=1;size=15;" vertex="1" parent="1">
          <mxGeometry x="670" y="428" width="90" height="100" as="geometry" />
        </mxCell>
        <mxCell id="tqDQIGiHZF4fIQzJ_Sd8-13" value="API Gateway.&lt;div&gt;-ssl termination&lt;/div&gt;&lt;div&gt;request routing&lt;/div&gt;&lt;div&gt;Metrics capturing&lt;/div&gt;&lt;div&gt;Rate limiting&lt;/div&gt;" style="text;html=1;align=center;verticalAlign=middle;resizable=0;points=[];autosize=1;strokeColor=none;fillColor=none;" vertex="1" parent="1">
          <mxGeometry x="230" y="530" width="110" height="90" as="geometry" />
        </mxCell>
        <mxCell id="tqDQIGiHZF4fIQzJ_Sd8-15" value="" style="edgeStyle=orthogonalEdgeStyle;rounded=0;orthogonalLoop=1;jettySize=auto;html=1;" edge="1" parent="1" source="tqDQIGiHZF4fIQzJ_Sd8-2" target="tqDQIGiHZF4fIQzJ_Sd8-14">
          <mxGeometry relative="1" as="geometry">
            <mxPoint x="520" y="490" as="sourcePoint" />
            <mxPoint x="680" y="470" as="targetPoint" />
            <Array as="points">
              <mxPoint x="540" y="490" />
              <mxPoint x="540" y="480" />
            </Array>
          </mxGeometry>
        </mxCell>
        <mxCell id="tqDQIGiHZF4fIQzJ_Sd8-14" value="Redis" style="ellipse;shape=cloud;whiteSpace=wrap;html=1;" vertex="1" parent="1">
          <mxGeometry x="550" y="450" width="70" height="60" as="geometry" />
        </mxCell>
        <mxCell id="tqDQIGiHZF4fIQzJ_Sd8-16" value="LRU&lt;div&gt;cache update&amp;nbsp;&lt;/div&gt;&lt;div&gt;Invalidation&lt;/div&gt;" style="text;html=1;align=center;verticalAlign=middle;resizable=0;points=[];autosize=1;strokeColor=none;fillColor=none;" vertex="1" parent="1">
          <mxGeometry x="540" y="513" width="100" height="60" as="geometry" />
        </mxCell>
        <mxCell id="tqDQIGiHZF4fIQzJ_Sd8-17" value="CDN" style="shape=process;whiteSpace=wrap;html=1;backgroundOutline=1;" vertex="1" parent="1">
          <mxGeometry x="100" y="550" width="60" height="30" as="geometry" />
        </mxCell>
        <mxCell id="tqDQIGiHZF4fIQzJ_Sd8-18" value="Analytics&lt;div&gt;ELK&lt;/div&gt;" style="rounded=0;whiteSpace=wrap;html=1;" vertex="1" parent="1">
          <mxGeometry x="640" y="573" width="120" height="60" as="geometry" />
        </mxCell>
        <mxCell id="tqDQIGiHZF4fIQzJ_Sd8-19" value="Configuration" style="rounded=0;whiteSpace=wrap;html=1;" vertex="1" parent="1">
          <mxGeometry x="100" y="620" width="110" height="40" as="geometry" />
        </mxCell>
        <mxCell id="tqDQIGiHZF4fIQzJ_Sd8-20" value="RatingServer" style="rounded=0;whiteSpace=wrap;html=1;" vertex="1" parent="1">
          <mxGeometry x="400" y="560" width="120" height="60" as="geometry" />
        </mxCell>
        <mxCell id="tqDQIGiHZF4fIQzJ_Sd8-21" value="" style="endArrow=classic;html=1;rounded=0;entryX=0.003;entryY=0.366;entryDx=0;entryDy=0;entryPerimeter=0;exitX=1;exitY=0.5;exitDx=0;exitDy=0;" edge="1" parent="1" source="tqDQIGiHZF4fIQzJ_Sd8-5" target="tqDQIGiHZF4fIQzJ_Sd8-20">
          <mxGeometry width="50" height="50" relative="1" as="geometry">
            <mxPoint x="480" y="460" as="sourcePoint" />
            <mxPoint x="530" y="410" as="targetPoint" />
          </mxGeometry>
        </mxCell>
        <mxCell id="tqDQIGiHZF4fIQzJ_Sd8-22" value="RatingServer" style="rounded=0;whiteSpace=wrap;html=1;" vertex="1" parent="1">
          <mxGeometry x="410" y="570" width="120" height="60" as="geometry" />
        </mxCell>
        <mxCell id="tqDQIGiHZF4fIQzJ_Sd8-23" value="" style="shape=cylinder3;whiteSpace=wrap;html=1;boundedLbl=1;backgroundOutline=1;size=15;" vertex="1" parent="1">
          <mxGeometry x="540" y="600" width="30" height="60" as="geometry" />
        </mxCell>
        <mxCell id="tqDQIGiHZF4fIQzJ_Sd8-24" value="AuditService" style="text;html=1;align=center;verticalAlign=middle;resizable=0;points=[];autosize=1;strokeColor=none;fillColor=none;" vertex="1" parent="1">
          <mxGeometry x="490" y="380" width="90" height="30" as="geometry" />
        </mxCell>
      </root>
    </mxGraphModel>
  </diagram>
</mxfile>
